<?xml version="1.0" standalone="no"?><!DOCTYPE svg PUBLIC "-//W3C//DTD SVG 1.1//EN" "http://www.w3.org/Graphics/SVG/1.1/DTD/svg11.dtd"><svg t="1694054814809" class="icon" viewBox="0 0 1024 1024" version="1.1" xmlns="http://www.w3.org/2000/svg" p-id="17439" xmlns:xlink="http://www.w3.org/1999/xlink" width="200" height="200"><path d="M507.649902 1015.81158L160.153845 618.161453a21.75049 21.75049 0 0 1 16.376839-36.080224h187.565987a22.262266 22.262266 0 0 0 21.750489-22.262266 1630.774944 1630.774944 0 0 0-12.538517-207.525259C350.022825 182.895773 268.138628 87.705395 204.934264 38.574877A21.75049 21.75049 0 0 1 223.102321 0.447548C588.766434 60.837143 665.532868 470.514012 679.350826 563.401397a21.238713 21.238713 0 0 0 21.494601 18.679832h170.677372a21.75049 21.75049 0 0 1 16.120951 36.080224L540.403581 1015.81158a21.75049 21.75049 0 0 1-32.753679 0z" p-id="17440" fill="#d81e06"></path></svg>