<?xml version="1.0" standalone="no"?><!DOCTYPE svg PUBLIC "-//W3C//DTD SVG 1.1//EN" "http://www.w3.org/Graphics/SVG/1.1/DTD/svg11.dtd"><svg t="1694054314485" class="icon" viewBox="0 0 1024 1024" version="1.1" xmlns="http://www.w3.org/2000/svg" p-id="15372" xmlns:xlink="http://www.w3.org/1999/xlink" width="200" height="200"><path d="M998.058667 948.451556H64.853333c-15.530667 0-25.884444-10.353778-25.884444-25.941334 0-15.530667 10.353778-25.884444 25.884444-25.884444h933.262223c15.587556 0 25.941333 10.353778 25.941333 25.884444 0 15.587556-10.353778 25.941333-25.941333 25.941334z" fill="#1296db" p-id="15373"></path><path d="M705.137778 935.480889h-121.856c-15.530667 0-25.941333-10.353778-25.941334-25.884445v-207.416888c0-15.587556 10.410667-25.941333 25.941334-25.941334h121.856c15.530667 0 25.941333 10.353778 25.941333 25.941334v207.416888a25.998222 25.998222 0 0 1-25.941333 25.884445z m-95.914667-51.825778h69.973333v-155.534222h-69.973333v155.534222z" fill="#1296db" p-id="15374"></path><path d="M824.376889 935.480889H702.577778c-15.530667 0-25.884444-10.353778-25.884445-25.884445V598.471111c0-15.530667 10.353778-25.884444 25.884445-25.884444h121.856c15.587556 0 25.941333 10.353778 25.941333 25.884444v311.125333c0 15.530667-10.353778 25.884444-25.941333 25.884445z m-93.297778-51.825778h69.973333v-259.242667h-69.973333v259.242667z" fill="#1296db" p-id="15375"></path><path d="M946.232889 935.480889H824.32c-15.530667 0-25.941333-10.353778-25.941333-25.884445V391.054222c0-15.587556 10.410667-25.941333 25.941333-25.941333h121.856c15.530667 0 25.941333 10.353778 25.941333 25.941333v518.485334c0 15.530667-10.410667 25.884444-25.941333 25.884444z m-95.914667-51.825778h69.973334V416.995556h-69.973334v466.659555z m-280.007111-362.951111a23.552 23.552 0 0 1-18.147555-7.793778 25.031111 25.031111 0 0 1 0-36.295111l337.009777-337.009778a25.031111 25.031111 0 0 1 36.295111 0 25.031111 25.031111 0 0 1 0 36.295111l-337.009777 337.009778a23.552 23.552 0 0 1-18.147556 7.793778z" fill="#1296db" p-id="15376"></path><path d="M933.262222 269.255111a25.998222 25.998222 0 0 1-25.941333-25.941333l-2.56-77.767111-77.767111 2.56c-15.587556 0-25.941333-10.353778-25.941334-25.884445 0-15.587556 10.353778-25.941333 25.941334-25.941333L930.645333 113.777778c15.587556 0 25.941333 10.353778 25.941334 25.884444l2.616889 103.708445a25.998222 25.998222 0 0 1-25.941334 25.941333zM259.242667 831.715556A259.982222 259.982222 0 0 1 0 572.529778a259.982222 259.982222 0 0 1 259.242667-259.242667 259.982222 259.982222 0 0 1 259.242666 259.242667 259.982222 259.982222 0 0 1-259.242666 259.242666z m0-466.602667a207.985778 207.985778 0 0 0-207.416889 207.36 207.985778 207.985778 0 0 0 207.416889 207.416889 207.985778 207.985778 0 0 0 207.416889-207.416889A207.985778 207.985778 0 0 0 259.242667 365.226667z" fill="#1296db" p-id="15377"></path><path d="M267.036444 712.533333h-69.973333c-15.587556 0-25.941333-10.353778-25.941333-25.884444 0-15.587556 10.353778-25.941333 25.884444-25.941333h69.973334c20.764444 0 36.352-12.970667 36.352-31.118223 0-18.147556-15.587556-31.118222-36.295112-31.118222H251.448889c-49.265778 0-88.177778-36.295111-88.177778-82.944s38.912-82.944 88.177778-82.944h62.236444c15.530667 0 25.941333 10.353778 25.941334 25.884445 0 15.587556-10.410667 25.941333-25.941334 25.941333H251.448889c-20.707556 0-36.295111 12.970667-36.295111 31.118222 0 18.147556 15.587556 31.118222 36.295111 31.118222h15.587555c49.208889 0 88.120889 36.295111 88.120889 82.944s-38.912 82.944-88.177777 82.944z" fill="#1296db" p-id="15378"></path><path d="M259.242667 766.976c-15.530667 0-25.941333-10.353778-25.941334-25.884444v-41.528889c0-15.530667 10.410667-25.884444 25.941334-25.884445s25.941333 10.353778 25.941333 25.884445v41.528889c0 15.530667-10.410667 25.884444-25.941333 25.884444z m0-282.567111c-15.530667 0-25.941333-10.353778-25.941334-25.884445v-41.528888c0-15.530667 10.410667-25.884444 25.941334-25.884445s25.941333 10.353778 25.941333 25.884445v41.528888c0 15.530667-10.410667 25.884444-25.941333 25.884445z" fill="#1296db" p-id="15379"></path></svg>