<?xml version="1.0" standalone="no"?><!DOCTYPE svg PUBLIC "-//W3C//DTD SVG 1.1//EN" "http://www.w3.org/Graphics/SVG/1.1/DTD/svg11.dtd"><svg t="1693989912688" class="icon" viewBox="0 0 1024 1024" version="1.1" xmlns="http://www.w3.org/2000/svg" p-id="4890" xmlns:xlink="http://www.w3.org/1999/xlink" width="200" height="200"><path d="M117.76 573.44h133.12c35.84 0 66.56 30.72 66.56 61.44v256c0 35.84-30.72 61.44-66.56 61.44H117.76c-35.84 0-66.56-30.72-66.56-61.44v-256c0-30.72 30.72-61.44 66.56-61.44z m0 66.56v256h133.12v-256H117.76z m327.68-189.44h133.12c35.84 0 66.56 30.72 66.56 61.44v384c0 35.84-30.72 61.44-66.56 61.44H445.44c-35.84 0-66.56-30.72-66.56-61.44V512c0-35.84 30.72-61.44 66.56-61.44z m0 61.44v384h133.12V512H445.44z m327.68-128h133.12c35.84 0 66.56 30.72 66.56 61.44v445.44c0 35.84-30.72 61.44-66.56 61.44h-133.12c-35.84 0-66.56-30.72-66.56-61.44V450.56c5.12-35.84 30.72-66.56 66.56-66.56z m0 66.56v445.44h133.12V450.56h-133.12z m163.84-384c20.48 0 35.84 15.36 35.84 30.72v168.96c0 10.24-5.12 15.36-10.24 20.48-5.12 5.12-15.36 10.24-25.6 10.24-20.48 0-35.84-15.36-35.84-30.72V179.2l-189.44 148.48c-71.68 56.32-179.2 61.44-256 0-46.08-35.84-117.76-35.84-163.84 5.12L112.64 512c-5.12 5.12-15.36 10.24-25.6 10.24s-20.48-5.12-25.6-10.24c-15.36-10.24-15.36-30.72 0-46.08l179.2-179.2c71.68-66.56 184.32-66.56 261.12-10.24 46.08 35.84 117.76 35.84 163.84 0l189.44-148.48h-102.4c-20.48 0-35.84-15.36-35.84-30.72s15.36-30.72 35.84-30.72h184.32z" fill="#009999" p-id="4891"></path></svg>