<?xml version="1.0" standalone="no"?><!DOCTYPE svg PUBLIC "-//W3C//DTD SVG 1.1//EN" "http://www.w3.org/Graphics/SVG/1.1/DTD/svg11.dtd"><svg t="1694054256322" class="icon" viewBox="0 0 1024 1024" version="1.1" xmlns="http://www.w3.org/2000/svg" p-id="12429" xmlns:xlink="http://www.w3.org/1999/xlink" width="200" height="200"><path d="M192 800h640c19.2 0 32 12.8 32 32s-12.8 32-32 32H192c-19.2 0-32-12.8-32-32s12.8-32 32-32zM416 416c19.2 0 32 12.8 32 32v224c0 19.2-12.8 32-32 32s-32-12.8-32-32v-224c0-19.2 12.8-32 32-32z" fill="#597EF7" p-id="12430"></path><path d="M224 512c19.2 0 32 12.8 32 32v128c0 19.2-12.8 32-32 32s-32-12.8-32-32v-128c0-19.2 12.8-32 32-32zM608 320c19.2 0 32 12.8 32 32v320c0 19.2-12.8 32-32 32s-32-12.8-32-32V352c0-19.2 12.8-32 32-32z" fill="#50E3C2" p-id="12431"></path><path d="M800 192c19.2 0 32 12.8 32 32v448c0 19.2-12.8 32-32 32s-32-12.8-32-32V224c0-19.2 12.8-32 32-32z" fill="#597EF7" p-id="12432"></path></svg>