<?xml version="1.0" standalone="no"?><!DOCTYPE svg PUBLIC "-//W3C//DTD SVG 1.1//EN" "http://www.w3.org/Graphics/SVG/1.1/DTD/svg11.dtd"><svg t="1724208117481" class="icon" viewBox="0 0 1024 1024" version="1.1" xmlns="http://www.w3.org/2000/svg" p-id="6328" xmlns:xlink="http://www.w3.org/1999/xlink" width="200" height="200"><path d="M0 0m256 0l512 0q256 0 256 256l0 512q0 256-256 256l-512 0q-256 0-256-256l0-512q0-256 256-256Z" fill="#1377EB" p-id="6329"></path><path d="M266.496 832a32.192 32.192 0 0 1-32.128-32.768V631.936a32.704 32.704 0 1 1 64.768 0v167.296a32.64 32.64 0 0 1-32.64 32.768z m161.152 0a32.192 32.192 0 0 1-32.064-32.768v-264.96a32.64 32.64 0 0 1 64.832 0v264.448a32.64 32.64 0 0 1-32.64 33.28h-0.128z m161.28 0a32.192 32.192 0 0 1-32.128-32.768V682.88a32.64 32.64 0 0 1 64.832 0v116.352a32.64 32.64 0 0 1-32.64 32.768h-0.064z m161.28 0a32.192 32.192 0 0 1-32.192-32.768V584.64a32.704 32.704 0 1 1 64.832 0v217.28a32.64 32.64 0 0 1-32.64 30.08z m-526.08-324.608a32.128 32.128 0 0 1-26.24-12.8 32.768 32.768 0 0 1 8.064-45.632l232.96-179.712a33.152 33.152 0 0 1 40.192 0L586.24 356.672l173.056-144.32a32.384 32.384 0 0 1 41.792 49.344L608.768 423.744a32.128 32.128 0 0 1-41.28 0L460.416 335.744 246.08 500.48a33.152 33.152 0 0 1-21.952 7.04z" fill="#FFFFFF" p-id="6330"></path><path d="M780.16 379.2a32.64 32.64 0 0 1-32.64-32.192V256.896h-91.072a32.704 32.704 0 0 1 0-64.896h123.712a32.64 32.64 0 0 1 32.64 32.128v122.88a32.64 32.64 0 0 1-32.64 32.256v-0.064z" fill="#FFFFFF" p-id="6331"></path></svg>
