<?xml version="1.0" standalone="no"?><!DOCTYPE svg PUBLIC "-//W3C//DTD SVG 1.1//EN" "http://www.w3.org/Graphics/SVG/1.1/DTD/svg11.dtd"><svg t="1724208063285" class="icon" viewBox="0 0 1024 1024" version="1.1" xmlns="http://www.w3.org/2000/svg" p-id="4341" xmlns:xlink="http://www.w3.org/1999/xlink" width="200" height="200"><path d="M0 0m102.4 0l819.2 0q102.4 0 102.4 102.4l0 819.2q0 102.4-102.4 102.4l-819.2 0q-102.4 0-102.4-102.4l0-819.2q0-102.4 102.4-102.4Z" fill="#7266FF" p-id="4342"></path><path d="M552.1664 553.9072c47.616-17.1264 81.8432-64.4096 81.8432-119.9104 0-70.1184-54.528-126.7968-121.6-126.7968s-121.6 56.832-121.6 126.7968c0 55.5008 34.2272 102.6304 81.8688 119.9104C392.6784 574.0288 332.8 653.184 332.8 742.4h359.0656c0-89.216-59.6992-168.3712-139.6992-188.4928z" fill="#FFFFFF" p-id="4343"></path></svg>
