<?xml version="1.0" standalone="no"?><!DOCTYPE svg PUBLIC "-//W3C//DTD SVG 1.1//EN" "http://www.w3.org/Graphics/SVG/1.1/DTD/svg11.dtd"><svg t="1724209217124" class="icon" viewBox="0 0 1024 1024" version="1.1" xmlns="http://www.w3.org/2000/svg" p-id="4314" xmlns:xlink="http://www.w3.org/1999/xlink" width="200" height="200"><path d="M201.955556 217.429333c0 77.312 40.220444 148.707556 105.472 187.392a206.506667 206.506667 0 0 0 211.057777 0 217.429333 217.429333 0 0 0 105.472-187.392c0-119.466667-94.435556-216.348444-211.057777-216.348444C296.391111 1.137778 201.955556 97.962667 201.955556 217.429333z" fill="#4880FF" p-id="4315"></path><path d="M514.048 446.008889H348.16c-192 0-347.591111 159.516444-347.591111 356.408889 0 59.392 47.104 107.690667 105.073778 107.690666H736.711111c45.511111 0 82.432-37.888 82.432-84.536888v-66.616889c0-172.771556-136.704-312.888889-305.152-312.888889z m136.931556-230.286222a232.789333 232.789333 0 0 1-54.044445 149.845333 12.288 12.288 0 0 0 0.512 16.156444 158.037333 158.037333 0 0 0 115.427556 50.232889c89.144889 0 161.28-74.353778 160.711111-165.888-0.568889-89.429333-71.566222-162.531556-158.833778-163.555555a156.16 156.16 0 0 0-68.835556 14.961778 16.384 16.384 0 0 0-8.362666 20.081777c8.760889 24.291556 13.425778 50.631111 13.425778 78.165334z" fill="#4880FF" p-id="4316"></path><path d="M741.774222 458.808889h-46.364444c-9.443556 0-12.913778 12.743111-4.778667 17.749333a324.152889 324.152889 0 0 1 154.282667 277.731556v68.721778c0 18.488889-5.688889 35.612444-15.36 49.834666-4.266667 6.257778 0 14.961778 7.566222 14.961778h110.364444c42.097778 0 76.231111-35.043556 76.231112-78.165333v-61.496889c0-159.857778-126.293333-289.336889-281.941334-289.336889z" fill="#4880FF" p-id="4317"></path></svg>
